<svg xmlns="http://www.w3.org/2000/svg" width="72" height="72" viewBox="0 0 72 72" fill="none">
  <g filter="url(#filter0_b_11442_1834)">
    <circle cx="36" cy="36" r="35" fill="#999999" fill-opacity="0.2"/>
    <circle cx="36" cy="36" r="35" stroke="#3A3A3A" stroke-opacity="0.65"/>
  </g>
  <path fill-rule="evenodd" clip-rule="evenodd" d="M55.3593 36.6797C55.3593 47.5484 46.5484 56.3593 35.6797 56.3593C24.8109 56.3593 16 47.5484 16 36.6797C16 25.8109 24.8109 17 35.6797 17C46.5484 17 55.3593 25.8109 55.3593 36.6797ZM37.5655 30.641C34.1846 32.1014 24.4363 36.2486 24.4363 36.2486C22.1261 37.1832 23.4784 38.0594 23.4784 38.0594C23.4784 38.0594 25.4506 38.7604 27.1411 39.2861C28.8315 39.8118 29.7331 39.2277 29.7331 39.2277C29.7331 39.2277 33.6775 36.5407 37.6782 33.6785C40.4956 31.6925 39.8195 33.328 39.1433 34.029C37.6782 35.5477 35.2552 37.9426 33.2267 39.8702C32.3251 40.688 32.7759 41.3889 33.1704 41.7394C34.3175 42.7457 37.0194 44.5757 38.2461 45.4065C38.586 45.6368 38.8127 45.7903 38.8616 45.8283C39.1433 46.062 40.7211 47.1134 41.679 46.8797C42.6369 46.6461 42.7496 45.3026 42.7496 45.3026C42.7496 45.3026 43.4821 40.5128 44.1583 36.1318C44.2836 35.2716 44.4088 34.4295 44.5256 33.6443C44.8291 31.6033 45.0755 29.9465 45.1162 29.3559C45.2853 27.3699 43.2567 28.1877 43.2567 28.1877C43.2567 28.1877 38.8616 30.0569 37.5655 30.641Z" fill="white"/>
  <defs>
    <filter id="filter0_b_11442_1834" x="-29.5" y="-29.5" width="131" height="131" filterUnits="userSpaceOnUse" color-interpolation-filters="sRGB">
      <feFlood flood-opacity="0" result="BackgroundImageFix"/>
      <feGaussianBlur in="BackgroundImageFix" stdDeviation="15"/>
      <feComposite in2="SourceAlpha" operator="in" result="effect1_backgroundBlur_11442_1834"/>
      <feBlend mode="normal" in="SourceGraphic" in2="effect1_backgroundBlur_11442_1834" result="shape"/>
    </filter>
  </defs>
</svg>